<svg width="70" height="70" viewBox="0 0 70 70" fill="none" xmlns="http://www.w3.org/2000/svg">
<path d="M60.2777 15.5555H44.7222V19.4444H60.2777V60.2778H44.7222V64.1667H64.1666V19.4444C64.1666 18.413 63.7569 17.4239 63.0276 16.6946C62.2983 15.9653 61.3091 15.5555 60.2777 15.5555Z" fill="#757575"/>
<path d="M38.6556 5.83331H11.9001C10.8068 5.83331 9.75827 6.26762 8.9852 7.04068C8.21214 7.81375 7.77783 8.86225 7.77783 9.95554V64.1666H42.7778V9.95554C42.7778 8.86225 42.3435 7.81375 41.5705 7.04068C40.7974 6.26762 39.7489 5.83331 38.6556 5.83331ZM38.8889 60.2778H33.0556V54.4444H17.5001V60.2778H11.6667V9.95554C11.6667 9.92489 11.6728 9.89455 11.6845 9.86624C11.6962 9.83793 11.7134 9.81221 11.7351 9.79054C11.7567 9.76888 11.7825 9.75169 11.8108 9.73996C11.8391 9.72824 11.8694 9.7222 11.9001 9.7222H38.6556C38.6862 9.7222 38.7166 9.72824 38.7449 9.73996C38.7732 9.75169 38.7989 9.76888 38.8206 9.79054C38.8423 9.81221 38.8595 9.83793 38.8712 9.86624C38.8829 9.89455 38.8889 9.92489 38.8889 9.95554V60.2778Z" fill="#757575"/>
<path d="M15.5555 15.5555H19.4444V19.4444H15.5555V15.5555Z" fill="#757575"/>
<path d="M23.3334 15.5555H27.2223V19.4444H23.3334V15.5555Z" fill="#757575"/>
<path d="M31.1111 15.5555H35V19.4444H31.1111V15.5555Z" fill="#757575"/>
<path d="M15.5555 25.2778H19.4444V29.1667H15.5555V25.2778Z" fill="#757575"/>
<path d="M23.3334 25.2778H27.2223V29.1667H23.3334V25.2778Z" fill="#757575"/>
<path d="M31.1111 25.2778H35V29.1667H31.1111V25.2778Z" fill="#757575"/>
<path d="M15.5555 35H19.4444V38.8889H15.5555V35Z" fill="#757575"/>
<path d="M23.3334 35H27.2223V38.8889H23.3334V35Z" fill="#757575"/>
<path d="M31.1111 35H35V38.8889H31.1111V35Z" fill="#757575"/>
<path d="M15.5555 44.7222H19.4444V48.6111H15.5555V44.7222Z" fill="#757575"/>
<path d="M23.3334 44.7222H27.2223V48.6111H23.3334V44.7222Z" fill="#757575"/>
<path d="M31.1111 44.7222H35V48.6111H31.1111V44.7222Z" fill="#757575"/>
<path d="M44.7222 25.2778H48.6111V29.1667H44.7222V25.2778Z" fill="#757575"/>
<path d="M52.5 25.2778H56.3889V29.1667H52.5V25.2778Z" fill="#757575"/>
<path d="M44.7222 35H48.6111V38.8889H44.7222V35Z" fill="#757575"/>
<path d="M52.5 35H56.3889V38.8889H52.5V35Z" fill="#757575"/>
<path d="M44.7222 44.7222H48.6111V48.6111H44.7222V44.7222Z" fill="#757575"/>
<path d="M52.5 44.7222H56.3889V48.6111H52.5V44.7222Z" fill="#757575"/>
<circle cx="62" cy="62" r="7" fill="white" stroke="#757575" stroke-width="2"/>
<line x1="62" y1="58" x2="62" y2="66" stroke="#757575" stroke-width="2"/>
<line x1="58" y1="62" x2="66" y2="62" stroke="#757575" stroke-width="2"/>
</svg>
