<svg width="50" height="50" viewBox="0 0 50 50" fill="none" xmlns="http://www.w3.org/2000/svg">
<path fill-rule="evenodd" clip-rule="evenodd" d="M14.1496 5.69304C12.5876 7.63969 12.247 9.81037 12.6638 10.9616C12.8788 11.5553 12.5213 12.1944 11.8651 12.389C11.2091 12.5836 10.503 12.2599 10.2881 11.6662C9.55176 9.63218 10.2425 6.71161 12.1269 4.36333C14.07 1.94173 17.3666 0 22.0453 0C26.7993 0 30.3433 1.76726 32.5151 4.1106C34.641 6.40428 35.5156 9.34492 34.6981 11.6585C34.4879 12.2537 33.7843 12.5818 33.1268 12.3915C32.4693 12.2011 32.1066 11.5644 32.317 10.9692C32.8044 9.58975 32.3369 7.43909 30.5998 5.56485C28.9088 3.74022 26.0691 2.26277 22.0453 2.26277C18.2175 2.26277 15.6529 3.81969 14.1496 5.69304Z" fill="#757575"/>
<path fill-rule="evenodd" clip-rule="evenodd" d="M16.25 2.26279C16.9404 2.26279 17.5 2.76933 17.5 3.39417V7.91972C17.5 8.54459 16.9404 9.05111 16.25 9.05111C15.5596 9.05111 15 8.54459 15 7.91972V3.39417C15 2.76933 15.5596 2.26279 16.25 2.26279Z" fill="#757575"/>
<path fill-rule="evenodd" clip-rule="evenodd" d="M22.5 0C23.1904 0 23.75 0.506545 23.75 1.13139V5.65693C23.75 6.28178 23.1904 6.78832 22.5 6.78832C21.8096 6.78832 21.25 6.28178 21.25 5.65693V1.13139C21.25 0.506545 21.8096 0 22.5 0Z" fill="#757575"/>
<path fill-rule="evenodd" clip-rule="evenodd" d="M15.1568 28.9954C14.8714 28.4662 14.2267 28.1801 13.5982 28.32C6.84312 29.8225 0 32.8861 0 37.495V42.9927V45.2555H2.5H42.5H45V42.9927V37.495C45 32.8861 38.1569 29.8225 31.4018 28.32C30.7733 28.1801 30.1286 28.4662 29.8433 28.9954H24.7631C23.6522 28.9956 23.0866 28.9956 22.531 28.9956C21.9546 28.9955 21.389 28.9955 20.2366 28.9958L15.1568 28.9954ZM24.7636 31.2582C24.7634 31.2582 24.7638 31.2582 24.7636 31.2582C23.6458 31.2584 23.0825 31.2584 22.53 31.2584C21.9573 31.2583 21.3953 31.2583 20.2373 31.2585L15.1565 31.2582L13.5947 31.2581L13.307 30.7244C10.4041 31.4332 7.666 32.4199 5.64525 33.6298C3.36578 34.9946 2.5 36.317 2.5 37.495V42.9927H42.5V37.495C42.5 36.317 41.6343 34.9946 39.3547 33.6298C37.334 32.4199 34.5959 31.4332 31.693 30.7244L31.4053 31.2582H29.8433H24.7636Z" fill="#757575"/>
<path d="M12.5 35.073C12.5 34.4481 13.0596 33.9416 13.75 33.9416C14.4404 33.9416 15 34.4481 15 35.073V42.9927C15 43.6176 14.4404 44.1241 13.75 44.1241C13.0596 44.1241 12.5 43.6176 12.5 42.9927V35.073Z" fill="#757575"/>
<path d="M30 35.073C30 34.4481 30.5596 33.9416 31.25 33.9416C31.9404 33.9416 32.5 34.4481 32.5 35.073V42.9927C32.5 43.6176 31.9404 44.1241 31.25 44.1241C30.5596 44.1241 30 43.6176 30 42.9927V35.073Z" fill="#757575"/>
<path fill-rule="evenodd" clip-rule="evenodd" d="M28.75 2.26279C29.4404 2.26279 30 2.76933 30 3.39417V7.91972C30 8.54459 29.4404 9.05111 28.75 9.05111C28.0596 9.05111 27.5 8.54459 27.5 7.91972V3.39417C27.5 2.76933 28.0596 2.26279 28.75 2.26279Z" fill="#757575"/>
<path fill-rule="evenodd" clip-rule="evenodd" d="M8.21025 13.3101C7.98875 11.8846 8.918 10.5448 10.4194 9.33698L12.0802 11.0282C10.769 12.0831 10.6436 12.7232 10.6859 12.9949C10.7301 13.2796 11.0455 13.7493 12.1674 14.2651C14.3605 15.2734 18.3379 15.8395 22.4997 15.8395C26.6616 15.8395 30.639 15.2734 32.8321 14.2651C33.9541 13.7493 34.2695 13.2796 34.3137 12.9949C34.3559 12.7232 34.2305 12.0831 32.9194 11.0282L34.5802 9.33698C36.0815 10.5448 37.0109 11.8846 36.7894 13.31C36.5699 14.7224 35.3032 15.667 33.9642 16.2826C31.2355 17.537 26.7754 18.1023 22.4997 18.1023C18.2241 18.1023 13.764 17.537 11.0352 16.2826C9.69625 15.667 8.42962 14.7224 8.21025 13.3101Z" fill="#757575"/>
<path fill-rule="evenodd" clip-rule="evenodd" d="M13.75 15.8394C13.75 20.2133 17.6675 23.7591 22.5 23.7591C27.3325 23.7591 31.25 20.2133 31.25 15.8394H33.75C33.75 21.4631 28.7132 26.0219 22.5 26.0219C16.2867 26.0219 11.25 21.4631 11.25 15.8394H13.75Z" fill="#757575"/>
<circle cx="42" cy="42" r="7" fill="white" stroke="#757575" stroke-width="2"/>
<path d="M44.6668 39.3333L39.3335 44.6667" stroke="#757575" stroke-width="2" stroke-linecap="round" stroke-linejoin="round"/>
<path d="M39.3335 39.3333L44.6668 44.6667" stroke="#757575" stroke-width="2" stroke-linecap="round" stroke-linejoin="round"/>
</svg>
