<svg width="35" height="31" viewBox="0 0 35 31" fill="none" xmlns="http://www.w3.org/2000/svg">
<path d="M14.2302 3.12513C11.5764 3.12513 9.0313 4.07392 7.15479 5.76279C5.27827 7.45165 4.22405 9.74224 4.22405 12.1307C4.22405 14.5191 5.27827 16.8097 7.15479 18.4985C9.0313 20.1874 11.5764 21.1362 14.2302 21.1362C16.884 21.1362 19.4291 20.1874 21.3056 18.4985C23.1821 16.8097 24.2363 14.5191 24.2363 12.1307C24.2363 9.74224 23.1821 7.45165 21.3056 5.76279C19.4291 4.07392 16.884 3.12513 14.2302 3.12513ZM0.888672 12.1307C0.888976 10.2198 1.39601 8.33655 2.36765 6.6375C3.33928 4.93844 4.74744 3.47263 6.47511 2.36188C8.20278 1.25114 10.2001 0.527531 12.3009 0.251207C14.4018 -0.0251177 16.5457 0.153819 18.5543 0.773146C20.5629 1.39247 22.3782 2.4343 23.8494 3.81205C25.3207 5.1898 26.4053 6.86367 27.0132 8.69456C27.6211 10.5255 27.7347 12.4605 27.3445 14.3388C26.9544 16.2172 26.0718 17.9846 24.77 19.4942L33.7539 27.5796C34.0576 27.8627 34.2257 28.2419 34.2219 28.6354C34.2181 29.0289 34.0427 29.4054 33.7335 29.6837C33.4243 29.962 33.0061 30.1198 32.5688 30.1232C32.1315 30.1266 31.7103 29.9754 31.3957 29.702L22.4119 21.6165C20.4398 22.9945 18.0776 23.8468 15.594 24.0765C13.1104 24.3062 10.605 23.904 8.36267 22.9158C6.12039 21.9276 4.23121 20.3929 2.90996 18.4863C1.5887 16.5797 0.888395 14.3777 0.888672 12.1307Z" fill="white"/>
</svg>
