<svg width="46" height="50" viewBox="0 0 46 50" fill="none" xmlns="http://www.w3.org/2000/svg">
<path fill-rule="evenodd" clip-rule="evenodd" d="M14.8999 6.28989C13.3379 8.44062 12.9973 10.8389 13.414 12.1107C13.629 12.7667 13.2715 13.4729 12.6154 13.6879C11.9594 13.9029 11.2533 13.5453 11.0384 12.8893C10.302 10.642 10.9928 7.41525 12.8771 4.82077C14.8203 2.1453 18.1169 0 22.7955 0C27.5495 0 31.0935 1.95254 33.2654 4.54155C35.3913 7.0757 36.2659 10.3246 35.4484 12.8807C35.2381 13.5384 34.5345 13.9009 33.877 13.6906C33.2195 13.4803 32.8569 12.7768 33.0673 12.1193C33.5546 10.5951 33.0871 8.219 31.35 6.14826C29.659 4.13234 26.8194 2.5 22.7955 2.5C18.9678 2.5 16.4031 4.22014 14.8999 6.28989Z" fill="black"/>
<path fill-rule="evenodd" clip-rule="evenodd" d="M17 2.50003C17.6904 2.50003 18.25 3.05968 18.25 3.75003V8.75003C18.25 9.44041 17.6904 10 17 10C16.3096 10 15.75 9.44041 15.75 8.75003V3.75003C15.75 3.05968 16.3096 2.50003 17 2.50003Z" fill="black"/>
<path fill-rule="evenodd" clip-rule="evenodd" d="M23.2501 0C23.9405 0 24.5001 0.55965 24.5001 1.25V6.25C24.5001 6.94035 23.9405 7.5 23.2501 7.5C22.5597 7.5 22.0001 6.94035 22.0001 6.25V1.25C22.0001 0.55965 22.5597 0 23.2501 0Z" fill="black"/>
<path fill-rule="evenodd" clip-rule="evenodd" d="M15.9068 32.0352C15.6214 31.4505 14.9767 31.1345 14.3482 31.289C7.59312 32.949 0.75 36.3339 0.75 41.4259V47.5V50H3.25H43.25H45.75V47.5V41.4259C45.75 36.3339 38.9069 32.949 32.1518 31.289C31.5233 31.1345 30.8786 31.4505 30.5932 32.0352H25.5131C24.4022 32.0355 23.8366 32.0355 23.281 32.0355C22.7046 32.0354 22.139 32.0354 20.9866 32.0356L15.9068 32.0352ZM25.5136 34.5352C25.5137 34.5352 25.5134 34.5352 25.5136 34.5352C24.3957 34.5355 23.8325 34.5355 23.28 34.5355C22.7073 34.5354 22.1453 34.5354 20.9873 34.5356L15.9065 34.5352L14.3447 34.5351L14.057 33.9455C11.1541 34.7286 8.416 35.8187 6.39525 37.1555C4.11578 38.6634 3.25 40.1244 3.25 41.4259V47.5H43.25V41.4259C43.25 40.1244 42.3842 38.6634 40.1047 37.1555C38.084 35.8187 35.3459 34.7286 32.443 33.9455L32.1553 34.5352H30.5932H25.5136Z" fill="black"/>
<path d="M13.2499 38.75C13.2499 38.0597 13.8095 37.5 14.4999 37.5C15.1903 37.5 15.7499 38.0597 15.7499 38.75V47.5C15.7499 48.1904 15.1903 48.75 14.4999 48.75C13.8095 48.75 13.2499 48.1904 13.2499 47.5V38.75Z" fill="black"/>
<path d="M30.75 38.75C30.75 38.0597 31.3096 37.5 32 37.5C32.6904 37.5 33.25 38.0597 33.25 38.75V47.5C33.25 48.1904 32.6904 48.75 32 48.75C31.3096 48.75 30.75 48.1904 30.75 47.5V38.75Z" fill="black"/>
<path fill-rule="evenodd" clip-rule="evenodd" d="M29.5002 2.50003C30.1906 2.50003 30.7502 3.05968 30.7502 3.75003V8.75003C30.7502 9.44041 30.1906 10 29.5002 10C28.8099 10 28.2502 9.44041 28.2502 8.75003V3.75003C28.2502 3.05968 28.8099 2.50003 29.5002 2.50003Z" fill="black"/>
<path fill-rule="evenodd" clip-rule="evenodd" d="M8.96037 14.7055C8.73887 13.1306 9.66812 11.6504 11.1695 10.3159L12.8304 12.1844C11.5191 13.3499 11.3937 14.0571 11.436 14.3572C11.4802 14.6719 11.7956 15.1907 12.9175 15.7606C15.1106 16.8746 19.088 17.5001 23.2499 17.5001C27.4117 17.5001 31.3891 16.8746 33.5822 15.7606C34.7042 15.1907 35.0196 14.6719 35.0639 14.3572C35.106 14.0571 34.9806 13.3499 33.6695 12.1844L35.3304 10.3159C36.8316 11.6504 37.761 13.1306 37.5395 14.7054C37.32 16.2659 36.0534 17.3095 34.7144 17.9896C31.9856 19.3756 27.5255 20.0001 23.2499 20.0001C18.9742 20.0001 14.5141 19.3756 11.7854 17.9896C10.4464 17.3095 9.17974 16.2659 8.96037 14.7055Z" fill="black"/>
<path fill-rule="evenodd" clip-rule="evenodd" d="M14.5 17.5C14.5 22.3325 18.4175 26.25 23.25 26.25C28.0825 26.25 32 22.3325 32 17.5H34.5C34.5 23.7133 29.4633 28.75 23.25 28.75C17.0367 28.75 12 23.7133 12 17.5H14.5Z" fill="black"/>
</svg>
