<svg width="51" height="55" viewBox="0 0 51 55" fill="none" xmlns="http://www.w3.org/2000/svg">
<path fill-rule="evenodd" clip-rule="evenodd" d="M14.1496 6.28989C12.5876 8.44063 12.247 10.8389 12.6638 12.1107C12.8788 12.7667 12.5213 13.4729 11.8651 13.6879C11.2091 13.9029 10.503 13.5453 10.2881 12.8893C9.55176 10.642 10.2425 7.41525 12.1269 4.82078C14.07 2.1453 17.3666 0 22.0453 0C26.7993 0 30.3433 1.95254 32.5151 4.54155C34.641 7.0757 35.5156 10.3246 34.6981 12.8807C34.4879 13.5384 33.7843 13.9009 33.1268 13.6906C32.4693 13.4803 32.1066 12.7768 32.317 12.1193C32.8044 10.5951 32.3369 8.219 30.5998 6.14826C28.9088 4.13234 26.0691 2.5 22.0453 2.5C18.2175 2.5 15.6529 4.22014 14.1496 6.28989Z" fill="#757575"/>
<path fill-rule="evenodd" clip-rule="evenodd" d="M16.25 2.50003C16.9404 2.50003 17.5 3.05968 17.5 3.75003V8.75003C17.5 9.44041 16.9404 10 16.25 10C15.5596 10 15 9.44041 15 8.75003V3.75003C15 3.05968 15.5596 2.50003 16.25 2.50003Z" fill="#757575"/>
<path fill-rule="evenodd" clip-rule="evenodd" d="M22.5 0C23.1904 0 23.75 0.55965 23.75 1.25V6.25C23.75 6.94035 23.1904 7.5 22.5 7.5C21.8096 7.5 21.25 6.94035 21.25 6.25V1.25C21.25 0.55965 21.8096 0 22.5 0Z" fill="#757575"/>
<path fill-rule="evenodd" clip-rule="evenodd" d="M15.1568 32.0352C14.8714 31.4505 14.2267 31.1345 13.5982 31.289C6.84312 32.949 0 36.3339 0 41.4259V47.5V50H2.5H42.5H45V47.5V41.4259C45 36.3339 38.1569 32.949 31.4018 31.289C30.7733 31.1345 30.1286 31.4505 29.8433 32.0352H24.7631C23.6522 32.0355 23.0866 32.0355 22.531 32.0355C21.9546 32.0354 21.389 32.0354 20.2366 32.0356L15.1568 32.0352ZM24.7636 34.5352C24.7634 34.5352 24.7638 34.5352 24.7636 34.5352C23.6458 34.5355 23.0825 34.5355 22.53 34.5355C21.9573 34.5354 21.3953 34.5354 20.2373 34.5356L15.1565 34.5352L13.5947 34.5351L13.307 33.9455C10.4041 34.7286 7.666 35.8187 5.64525 37.1555C3.36578 38.6634 2.5 40.1244 2.5 41.4259V47.5H42.5V41.4259C42.5 40.1244 41.6343 38.6634 39.3547 37.1555C37.334 35.8187 34.5959 34.7286 31.693 33.9455L31.4053 34.5352H29.8433H24.7636Z" fill="#757575"/>
<path d="M12.5 38.75C12.5 38.0597 13.0596 37.5 13.75 37.5C14.4404 37.5 15 38.0597 15 38.75V47.5C15 48.1904 14.4404 48.75 13.75 48.75C13.0596 48.75 12.5 48.1904 12.5 47.5V38.75Z" fill="#757575"/>
<path d="M30 38.75C30 38.0597 30.5596 37.5 31.25 37.5C31.9404 37.5 32.5 38.0597 32.5 38.75V47.5C32.5 48.1904 31.9404 48.75 31.25 48.75C30.5596 48.75 30 48.1904 30 47.5V38.75Z" fill="#757575"/>
<path fill-rule="evenodd" clip-rule="evenodd" d="M28.75 2.50003C29.4404 2.50003 30 3.05968 30 3.75003V8.75003C30 9.44041 29.4404 10 28.75 10C28.0596 10 27.5 9.44041 27.5 8.75003V3.75003C27.5 3.05968 28.0596 2.50003 28.75 2.50003Z" fill="#757575"/>
<path fill-rule="evenodd" clip-rule="evenodd" d="M8.21025 14.7055C7.98875 13.1306 8.918 11.6504 10.4194 10.3159L12.0802 12.1844C10.769 13.3499 10.6436 14.0571 10.6859 14.3572C10.7301 14.6719 11.0455 15.1907 12.1674 15.7606C14.3605 16.8746 18.3379 17.5001 22.4997 17.5001C26.6616 17.5001 30.639 16.8746 32.8321 15.7606C33.9541 15.1907 34.2695 14.6719 34.3137 14.3572C34.3559 14.0571 34.2305 13.3499 32.9194 12.1844L34.5802 10.3159C36.0815 11.6504 37.0109 13.1306 36.7894 14.7054C36.5699 16.2659 35.3032 17.3095 33.9642 17.9896C31.2355 19.3756 26.7754 20.0001 22.4997 20.0001C18.2241 20.0001 13.764 19.3756 11.0352 17.9896C9.69625 17.3095 8.42962 16.2659 8.21025 14.7055Z" fill="#757575"/>
<path fill-rule="evenodd" clip-rule="evenodd" d="M13.75 17.5C13.75 22.3325 17.6675 26.25 22.5 26.25C27.3325 26.25 31.25 22.3325 31.25 17.5H33.75C33.75 23.7133 28.7132 28.75 22.5 28.75C16.2867 28.75 11.25 23.7133 11.25 17.5H13.75Z" fill="#757575"/>
<circle cx="43" cy="47" r="7" fill="white" stroke="#757575" stroke-width="2"/>
<line x1="43" y1="43" x2="43" y2="51" stroke="#757575" stroke-width="2"/>
<line x1="39" y1="47" x2="47" y2="47" stroke="#757575" stroke-width="2"/>
</svg>
