<svg width="58" height="63" viewBox="0 0 58 63" fill="none" xmlns="http://www.w3.org/2000/svg">
<path fill-rule="evenodd" clip-rule="evenodd" d="M55 57.8947H0V55H55V57.8947Z" fill="#757575"/>
<path fill-rule="evenodd" clip-rule="evenodd" d="M27.5 4.3421C28.2994 4.3421 28.9473 4.99012 28.9473 5.78947V14.4737C28.9473 15.2731 28.2994 15.921 27.5 15.921C26.7006 15.921 26.0526 15.2731 26.0526 14.4737V5.78947C26.0526 4.99012 26.7006 4.3421 27.5 4.3421Z" fill="#757575"/>
<path fill-rule="evenodd" clip-rule="evenodd" d="M21.7104 10.1316C21.7104 9.33225 22.3584 8.68427 23.1578 8.68427H31.842C32.6414 8.68427 33.2894 9.33225 33.2894 10.1316C33.2894 10.931 32.6414 11.579 31.842 11.579H23.1578C22.3584 11.579 21.7104 10.931 21.7104 10.1316Z" fill="#757575"/>
<path fill-rule="evenodd" clip-rule="evenodd" d="M33.2896 2.89474H21.7106C20.9113 2.89474 20.2633 3.54275 20.2633 4.34211V15.9211C20.2633 16.7204 20.9113 17.3684 21.7106 17.3684H33.2896C34.089 17.3684 34.737 16.7204 34.737 15.9211V4.34211C34.737 3.54275 34.089 2.89474 33.2896 2.89474ZM21.7106 0H33.2896C35.6877 0 37.6317 1.94403 37.6317 4.34211V15.9211C37.6317 18.3192 35.6877 20.2632 33.2896 20.2632H21.7106C19.3125 20.2632 17.3685 18.3192 17.3685 15.9211V4.34211C17.3685 1.94403 19.3125 0 21.7106 0Z" fill="#757575"/>
<path fill-rule="evenodd" clip-rule="evenodd" d="M5.78943 18.8158C5.78943 16.4177 7.73339 14.4737 10.1315 14.4737H17.7437V17.3684H10.1315C9.33215 17.3684 8.68417 18.0164 8.68417 18.8158V55H5.78943V18.8158Z" fill="#757575"/>
<path fill-rule="evenodd" clip-rule="evenodd" d="M49.2106 18.8158C49.2106 16.4177 47.2666 14.4737 44.8685 14.4737H37.2563V17.3684H44.8685C45.6679 17.3684 46.3159 18.0164 46.3159 18.8158V55H49.2106V18.8158Z" fill="#757575"/>
<path fill-rule="evenodd" clip-rule="evenodd" d="M27.4999 43.421C25.9012 43.421 24.6052 44.717 24.6052 46.3158V56.4474H21.7104V46.3158C21.7104 43.1184 24.3025 40.5263 27.4999 40.5263C30.6973 40.5263 33.2894 43.1184 33.2894 46.3158V56.4474H30.3947V46.3158C30.3947 44.717 29.0987 43.421 27.4999 43.421Z" fill="#757575"/>
<path fill-rule="evenodd" clip-rule="evenodd" d="M18.8158 28.9473V23.1578H13.0264V28.9473H18.8158Z" fill="#757575"/>
<path fill-rule="evenodd" clip-rule="evenodd" d="M18.8158 37.6316V31.8421H13.0264V37.6316H18.8158Z" fill="#757575"/>
<path fill-rule="evenodd" clip-rule="evenodd" d="M30.3947 28.9473V23.1578H24.6052V28.9473H30.3947Z" fill="#757575"/>
<path fill-rule="evenodd" clip-rule="evenodd" d="M30.3947 37.6316V31.8421H24.6052V37.6316H30.3947Z" fill="#757575"/>
<path fill-rule="evenodd" clip-rule="evenodd" d="M41.9738 28.9473V23.1578H36.1843V28.9473H41.9738Z" fill="#757575"/>
<path fill-rule="evenodd" clip-rule="evenodd" d="M41.9738 37.6316V31.8421H36.1843V37.6316H41.9738Z" fill="#757575"/>
<circle cx="50" cy="55" r="7" fill="white" stroke="#757575" stroke-width="2"/>
<line x1="50" y1="51" x2="50" y2="59" stroke="#757575" stroke-width="2"/>
<line x1="46" y1="55" x2="54" y2="55" stroke="#757575" stroke-width="2"/>
</svg>
