<svg width="38" height="50" viewBox="0 0 38 50" fill="none" xmlns="http://www.w3.org/2000/svg">
<path d="M18.4896 0L18.2943 0.0651042L1.6276 3.97135L0 4.36198V46.5495L1.69271 46.8099L18.3594 49.9349L18.5547 50H22.9167V0H18.4896ZM27.0833 4.16667V8.33333H33.3333V41.6667H27.0833V45.8333H37.5V4.16667H27.0833ZM18.75 4.23177V45.8333L4.16667 43.099V7.61719L18.75 4.23177ZM15.2995 22.9167C14.5345 22.9167 13.8672 23.8525 13.8672 25C13.8672 26.1475 14.5345 27.0833 15.2995 27.0833C16.0645 27.0833 16.6667 26.1475 16.6667 25C16.6667 23.8525 16.0645 22.9167 15.2995 22.9167Z" fill="white"/>
</svg>
