<svg width="38" height="34" viewBox="0 0 38 34" fill="none" xmlns="http://www.w3.org/2000/svg">
<path d="M33.6552 8.05235C33.4242 7.72266 33.1172 7.45348 32.7601 7.26758C32.403 7.08168 32.0064 6.98453 31.6039 6.98435H25.37V3.22851C25.3693 2.56466 25.1052 1.92822 24.6358 1.45881C24.1664 0.989397 23.53 0.725355 22.8661 0.724609H2.83495C2.17111 0.725355 1.53466 0.989397 1.06525 1.45881C0.595842 1.92822 0.3318 2.56466 0.331055 3.22851V28.8935H4.48455C4.70452 30.1221 5.34956 31.2343 6.30679 32.0354C7.26402 32.8365 8.47247 33.2754 9.72067 33.2754C10.9689 33.2754 12.1773 32.8365 13.1346 32.0354C14.0918 31.2343 14.7368 30.1221 14.9568 28.8935H23.2638C23.4838 30.1221 24.1288 31.2343 25.086 32.0354C26.0433 32.8365 27.2517 33.2754 28.4999 33.2754C29.7481 33.2754 30.9566 32.8365 31.9138 32.0354C32.871 31.2343 33.5161 30.1221 33.736 28.8935H37.8895V14.6934C37.8901 14.308 37.7716 13.9319 37.5501 13.6165L33.6552 8.05235ZM2.83339 3.22851H22.8661V16.9999H2.83495L2.83339 3.22851ZM9.72067 30.7714C9.16355 30.7714 8.61893 30.6062 8.1557 30.2967C7.69246 29.9871 7.33141 29.5472 7.11821 29.0325C6.90501 28.5178 6.84922 27.9514 6.95791 27.405C7.0666 26.8585 7.33489 26.3566 7.72883 25.9627C8.12278 25.5687 8.6247 25.3004 9.17113 25.1917C9.71755 25.0831 10.2839 25.1388 10.7986 25.352C11.3134 25.5652 11.7533 25.9263 12.0628 26.3895C12.3724 26.8528 12.5376 27.3974 12.5376 27.9545C12.5367 28.7013 12.2397 29.4173 11.7116 29.9454C11.1835 30.4735 10.4675 30.7706 9.72067 30.7714ZM28.4999 30.7714C27.9428 30.7714 27.3982 30.6062 26.9349 30.2967C26.4717 29.9871 26.1106 29.5472 25.8974 29.0325C25.6842 28.5178 25.6285 27.9514 25.7371 27.405C25.8458 26.8585 26.1141 26.3566 26.5081 25.9627C26.902 25.5687 27.4039 25.3004 27.9504 25.1917C28.4968 25.0831 29.0632 25.1388 29.5779 25.352C30.0926 25.5652 30.5325 25.9263 30.8421 26.3895C31.1516 26.8528 31.3168 27.3974 31.3168 27.9545C31.316 28.7013 31.0189 29.4173 30.4908 29.9454C29.9627 30.4735 29.2467 30.7706 28.4999 30.7714ZM35.3856 26.3896H33.5855C33.2509 25.3019 32.5764 24.3502 31.6611 23.6742C30.7458 22.9981 29.6378 22.6333 28.4999 22.6333C27.362 22.6333 26.254 22.9981 25.3387 23.6742C24.4234 24.3502 23.7489 25.3019 23.4143 26.3896H14.8062C14.4717 25.3019 13.7972 24.3502 12.8819 23.6742C11.9666 22.9981 10.8586 22.6333 9.72067 22.6333C8.58275 22.6333 7.47479 22.9981 6.55947 23.6742C5.64416 24.3502 4.96969 25.3019 4.6351 26.3896H2.83495V19.5038H35.3856V26.3896ZM35.3856 16.9999H25.37V9.48825H31.6039L35.3856 14.8907V16.9999Z" fill="black"/>
</svg>
