<svg width="65" height="60" viewBox="0 0 65 60" fill="none" xmlns="http://www.w3.org/2000/svg">
<path d="M32.7907 37.6744H2.09302C0.948837 37.6744 0 36.7256 0 35.5814V13.2558C0 5.94419 5.94419 0 13.2558 0H38.3721C39.5163 0 40.4651 0.948837 40.4651 2.09302V30C40.4651 34.2419 37.0326 37.6744 32.7907 37.6744ZM4.18605 33.4884H32.7907C34.7163 33.4884 36.2791 31.9256 36.2791 30V4.18605H13.2558C8.26047 4.18605 4.18605 8.26047 4.18605 13.2558V33.4884Z" fill="#757575"/>
<path d="M49.5349 54.4186H46.7442C45.6 54.4186 44.6512 53.4697 44.6512 52.3256C44.6512 50.4 43.0884 48.8372 41.1628 48.8372C39.2372 48.8372 37.6744 50.4 37.6744 52.3256C37.6744 53.4697 36.7256 54.4186 35.5814 54.4186H24.4186C23.2744 54.4186 22.3256 53.4697 22.3256 52.3256C22.3256 50.4 20.7628 48.8372 18.8372 48.8372C16.9116 48.8372 15.3488 50.4 15.3488 52.3256C15.3488 53.4697 14.4 54.4186 13.2558 54.4186H10.4651C4.68837 54.4186 0 49.7302 0 43.9535V35.5814C0 34.4372 0.948837 33.4884 2.09302 33.4884H32.7907C34.7163 33.4884 36.2791 31.9256 36.2791 30V10.4651C36.2791 9.32091 37.2279 8.37207 38.3721 8.37207H43.507C46.2698 8.37207 48.8093 9.85117 50.1767 12.2512L54.9488 20.5953C55.3116 21.2372 55.3116 22.0465 54.9488 22.6884C54.586 23.3302 53.8884 23.7209 53.1349 23.7209H49.5349C49.1442 23.7209 48.8372 24.0279 48.8372 24.4186V32.7907C48.8372 33.1814 49.1442 33.4884 49.5349 33.4884H57.907C59.0512 33.4884 60 34.4372 60 35.5814V43.9535C60 49.7302 55.3116 54.4186 49.5349 54.4186ZM48.5581 50.2325H49.5349C52.9953 50.2325 55.814 47.4139 55.814 43.9535V37.6744H49.5349C46.8558 37.6744 44.6512 35.4697 44.6512 32.7907V24.4186C44.6512 21.7395 46.8279 19.5349 49.5349 19.5349L46.5488 14.3163C45.9349 13.2279 44.7628 12.5581 43.507 12.5581H40.4651V30C40.4651 34.2418 37.0326 37.6744 32.7907 37.6744H4.18605V43.9535C4.18605 47.4139 7.00465 50.2325 10.4651 50.2325H11.4419C12.3628 47.0232 15.3209 44.6511 18.8372 44.6511C22.3535 44.6511 25.3116 47.0232 26.2326 50.2325H33.7953C34.7163 47.0232 37.6744 44.6511 41.1907 44.6511C44.707 44.6511 47.6372 47.0232 48.5581 50.2325Z" fill="#757575"/>
<path d="M18.837 60C14.5952 60 11.1626 56.5674 11.1626 52.3255C11.1626 48.0837 14.5952 44.6511 18.837 44.6511C23.0789 44.6511 26.5114 48.0837 26.5114 52.3255C26.5114 56.5674 23.0789 60 18.837 60ZM18.837 48.8372C16.9114 48.8372 15.3486 50.4 15.3486 52.3255C15.3486 54.2511 16.9114 55.8139 18.837 55.8139C20.7626 55.8139 22.3254 54.2511 22.3254 52.3255C22.3254 50.4 20.7626 48.8372 18.837 48.8372Z" fill="#757575"/>
<path d="M41.1627 60C36.9208 60 33.4883 56.5674 33.4883 52.3255C33.4883 48.0837 36.9208 44.6511 41.1627 44.6511C45.4046 44.6511 48.8371 48.0837 48.8371 52.3255C48.8371 56.5674 45.4046 60 41.1627 60ZM41.1627 48.8372C39.2371 48.8372 37.6743 50.4 37.6743 52.3255C37.6743 54.2511 39.2371 55.8139 41.1627 55.8139C43.0883 55.8139 44.6511 54.2511 44.6511 52.3255C44.6511 50.4 43.0883 48.8372 41.1627 48.8372Z" fill="#757575"/>
<path d="M57.9072 37.6744H49.5351C46.856 37.6744 44.6514 35.4698 44.6514 32.7907V24.4186C44.6514 21.7396 46.856 19.5349 49.5351 19.5349H53.1351C53.8886 19.5349 54.5863 19.9256 54.949 20.5954L59.7211 28.9675C59.8886 29.2744 60.0002 29.6372 60.0002 30V35.5814C60.0002 36.7256 59.0514 37.6744 57.9072 37.6744ZM49.5351 23.721C49.1444 23.721 48.8374 24.0279 48.8374 24.4186V32.7907C48.8374 33.1814 49.1444 33.4884 49.5351 33.4884H55.8142V30.5582L51.9072 23.721H49.5351Z" fill="#757575"/>
<circle cx="57" cy="50" r="7" fill="white" stroke="#757575" stroke-width="2"/>
<line x1="57" y1="46" x2="57" y2="54" stroke="#757575" stroke-width="2"/>
<line x1="53" y1="50" x2="61" y2="50" stroke="#757575" stroke-width="2"/>
</svg>
